<?xml version="1.0" encoding="utf-8"?><svg version="1.1" id="Layer_1" xmlns="http://www.w3.org/2000/svg" xmlns:xlink="http://www.w3.org/1999/xlink" x="0px" y="0px" viewBox="0 0 105.31 122.88" style="enable-background:new 0 0 105.31 122.88" xml:space="preserve"><style type="text/css">.st0{fill-rule:evenodd;clip-rule:evenodd;}</style><g><path fill="#FFFFFF" class="st0" d="M25.25,21.27c3.84-3.93,5.5-6,10.88-6h42.31c4.2,0,7.64-3.44,7.64-7.64l0,0c0-4.2-3.44-7.64-7.64-7.64H38.28 C11.59,0,2.99,40.04,0.79,61.16c-0.78,7.45-1.02,16.51-0.57,24.31c0.73,2.95,5.38,2.55,5.4-0.81C7.27,63.67,9.85,37.04,25.25,21.27 L25.25,21.27z M76.72,93.24c0.11-4.72,0.16-9.4,0.15-14.06c-0.01-4.74-0.08-9.47-0.22-14.18H46.41c-0.14,4.71-0.21,9.43-0.22,14.18 c-0.01,4.66,0.04,9.34,0.15,14.06H76.72L76.72,93.24z M29.63,36.88h14.22c-0.66,7.9-1.13,15.91-1.42,24.01H18.79 C20.42,48.83,23.84,36.88,29.63,36.88L29.63,36.88z M47.98,36.88h13.49h13.61c0,0.06,0,0.11,0.01,0.17 c0.66,7.88,1.14,15.83,1.43,23.84H46.54c0.29-8.01,0.77-15.96,1.43-23.84C47.98,36.99,47.98,36.93,47.98,36.88L47.98,36.88z M79.2,36.88h14.1c5.79,0,9.22,11.95,10.84,24.01H80.63C80.34,52.78,79.86,44.78,79.2,36.88L79.2,36.88z M104.64,65.01 c0.83,8.08,0.86,15.59,0.28,18.84c-0.5,2.75-1.28,6.03-2.36,9.49c-0.19-0.06-0.4-0.09-0.62-0.09H80.83 c0.11-4.7,0.16-9.39,0.15-14.06c-0.01-4.76-0.08-9.48-0.21-14.18h23.73C104.54,65.01,104.59,65.01,104.64,65.01L104.64,65.01z M101.19,97.37c-4.18,11.44-11.4,23.54-21.79,25.29c0.63-8.49,1.06-16.92,1.32-25.29H101.19L101.19,97.37z M75.26,122.88H61.47 H47.79c0-0.05,0-0.1-0.01-0.15c-0.63-8.54-1.08-17-1.34-25.37H76.6c-0.26,8.37-0.7,16.82-1.34,25.37 C75.26,122.78,75.26,122.83,75.26,122.88L75.26,122.88z M43.66,122.68C33.21,121,25.95,108.85,21.75,97.37h20.59 C42.59,105.75,43.03,114.19,43.66,122.68L43.66,122.68z M20.39,93.35c-1.08-3.47-1.87-6.75-2.36-9.5 C17.44,80.6,17.48,73.09,18.3,65c0.07,0.01,0.15,0.01,0.23,0.01h23.76c-0.13,4.69-0.2,9.42-0.21,14.18 c-0.01,4.67,0.04,9.35,0.15,14.06H21.04C20.81,93.24,20.59,93.28,20.39,93.35L20.39,93.35z M46.91,17.63h29.07v16.3H46.91V17.63 L46.91,17.63z"/></g></svg>
